<?xml version="1.0" encoding="UTF-8"?>
<svg width="707.724555px" height="189.21916px" viewBox="0 0 707.724555 189.21916" version="1.1" xmlns="http://www.w3.org/2000/svg" xmlns:xlink="http://www.w3.org/1999/xlink">
    <title>criotec-logo-bianco</title>
    <g id="feed" stroke="none" stroke-width="1" fill="none" fill-rule="evenodd">
        <g id="criotec-logo-bianco" fill="#1C438F" fill-rule="nonzero">
            <g id="Group" transform="translate(2.775445, 175.175445)">
                <path d="M11.3245553,2.52455532 L3.02455532,2.52455532 L3.02455532,11.3245553 L11.3245553,11.3245553 L11.3245553,8.32455532 L14.4245553,9.02455532 L14.4245553,10.6245553 C14.5245553,11.5245553 14.3245553,12.5245553 13.7245553,13.2245553 C12.9245553,13.7245553 12.0245553,14.0245553 11.1245553,13.9245553 L3.32455532,13.9245553 C2.42455532,14.0245553 1.52455532,13.8245553 0.72455532,13.2245553 C0.22455532,12.4245553 -0.0754446797,11.5245553 0.0245553203,10.6245553 L0.0245553203,3.32455532 C-0.0754446797,2.42455532 0.12455532,1.42455532 0.72455532,0.72455532 C1.52455532,0.22455532 2.42455532,-0.0754446797 3.32455532,0.0245553203 L11.2245553,0.0245553203 C12.1245553,-0.0754446797 13.0245553,0.12455532 13.8245553,0.72455532 C14.3245553,1.52455532 14.6245553,2.42455532 14.5245553,3.32455532 L14.5245553,4.62455532 L11.4245553,5.12455532 L11.3245553,2.52455532 L11.3245553,2.52455532 Z" id="Path"></path>
                <path d="M20.7245553,13.9245553 L20.7245553,0.0245553203 L32.0245553,0.0245553203 C34.0245553,0.0245553203 35.0245553,0.92455532 35.0245553,2.72455532 L35.0245553,6.02455532 C35.0245553,7.82455532 34.0245553,8.72455532 32.0245553,8.72455532 L30.3245553,8.72455532 L36.4245553,13.9245553 L32.0245553,13.9245553 L26.7245553,8.72455532 L23.8245553,8.72455532 L23.8245553,13.9245553 L20.7245553,13.9245553 L20.7245553,13.9245553 Z M30.7245553,2.42455532 L23.8245553,2.42455532 L23.8245553,6.32455532 L30.7245553,6.32455532 C31.0245553,6.32455532 31.4245553,6.32455532 31.7245553,6.12455532 C32.0245553,5.92455532 32.1245553,5.52455532 32.1245553,5.22455532 L32.1245553,3.52455532 C32.1245553,3.12455532 32.0245553,2.82455532 31.7245553,2.62455532 C31.3245553,2.42455532 31.0245553,2.42455532 30.7245553,2.42455532 L30.7245553,2.42455532 Z" id="Shape"></path>
                <polygon id="Path" points="44.9245553 13.9245553 44.9245553 7.72455532 38.1245553 0.0245553203 42.2245553 0.0245553203 46.7245553 5.32455532 51.3245553 0.0245553203 54.9245553 0.0245553203 48.1245553 7.62455532 48.1245553 13.9245553 44.9245553 13.9245553"></polygon>
                <path d="M58.2245553,3.32455532 C58.1245553,2.42455532 58.3245553,1.42455532 58.9245553,0.72455532 C59.7245553,0.22455532 60.6245553,-0.0754446797 61.5245553,0.0245553203 L71.2245553,0.0245553203 C72.1245553,-0.0754446797 73.0245553,0.12455532 73.8245553,0.72455532 C74.4245553,1.52455532 74.6245553,2.42455532 74.5245553,3.32455532 L74.5245553,10.6245553 C74.6245553,11.5245553 74.4245553,12.5245553 73.8245553,13.2245553 C73.0245553,13.7245553 72.1245553,14.0245553 71.2245553,13.9245553 L61.5245553,13.9245553 C60.6245553,14.0245553 59.7245553,13.8245553 58.9245553,13.2245553 C58.4245553,12.4245553 58.1245553,11.5245553 58.2245553,10.6245553 C58.2245553,10.6245553 58.2245553,3.32455532 58.2245553,3.32455532 L58.2245553,3.32455532 Z M61.2245553,11.3245553 L71.4245553,11.3245553 L71.4245553,2.52455532 L61.2245553,2.52455532 L61.2245553,11.3245553 Z" id="Shape"></path>
                <path d="M93.2245553,2.52455532 L83.6245553,2.52455532 L83.6245553,11.3245553 L93.2245553,11.3245553 L93.2245553,8.22455532 L88.2245553,8.22455532 L88.2245553,5.82455532 L96.2245553,5.82455532 L96.2245553,10.6245553 C96.3245553,11.5245553 96.1245553,12.5245553 95.5245553,13.2245553 C94.7245553,13.7245553 93.8245553,14.0245553 92.9245553,13.9245553 L83.8245553,13.9245553 C82.9245553,14.0245553 82.0245553,13.8245553 81.2245553,13.2245553 C80.6245553,12.4245553 80.4245553,11.5245553 80.5245553,10.6245553 L80.5245553,3.32455532 C80.4245553,2.42455532 80.6245553,1.42455532 81.2245553,0.72455532 C82.0245553,0.22455532 82.9245553,-0.0754446797 83.8245553,0.0245553203 L92.9245553,0.0245553203 C93.8245553,-0.0754446797 94.7245553,0.12455532 95.5245553,0.72455532 C96.1245553,1.42455532 96.3245553,2.32455532 96.2245553,3.22455532 L96.2245553,3.52455532 L93.2245553,4.12455532 L93.2245553,2.52455532 L93.2245553,2.52455532 L93.2245553,2.52455532 Z" id="Path"></path>
                <polygon id="Path" points="102.724555 13.9245553 102.724555 0.0245553203 116.224555 0.0245553203 116.224555 2.42455532 105.824555 2.42455532 105.824555 5.52455532 111.924555 5.52455532 111.924555 7.92455532 105.824555 7.92455532 105.824555 11.3245553 116.424555 11.3245553 116.424555 13.9245553 102.724555 13.9245553"></polygon>
                <path d="M122.024555,13.9245553 L122.024555,0.0245553203 L124.124555,0.0245553203 L133.424555,8.22455532 L134.924555,9.72455532 C134.824555,8.42455532 134.824555,7.62455532 134.824555,7.32455532 L134.824555,0.0245553203 L137.624555,0.0245553203 L137.624555,13.9245553 L135.524555,13.9245553 L125.824555,5.32455532 C125.424555,4.92455532 125.024555,4.62455532 124.724555,4.22455532 C124.824555,5.12455532 124.824555,5.82455532 124.824555,6.42455532 L124.824555,13.9245553 L122.024555,13.9245553 L122.024555,13.9245553 Z" id="Path"></path>
                <polygon id="Path" points="144.324555 13.9245553 144.324555 0.0245553203 147.424555 0.0245553203 147.424555 13.9245553"></polygon>
                <path d="M165.224555,2.52455532 L156.924555,2.52455532 L156.924555,11.3245553 L165.224555,11.3245553 L165.224555,8.32455532 L168.324555,9.02455532 L168.324555,10.6245553 C168.424555,11.5245553 168.224555,12.5245553 167.624555,13.2245553 C166.824555,13.7245553 165.924555,14.0245553 165.024555,13.9245553 L157.124555,13.9245553 C156.224555,14.0245553 155.324555,13.8245553 154.524555,13.2245553 C153.924555,12.4245553 153.724555,11.5245553 153.824555,10.6245553 L153.824555,3.32455532 C153.724555,2.42455532 153.924555,1.42455532 154.524555,0.72455532 C155.324555,0.22455532 156.224555,-0.0754446797 157.124555,0.0245553203 L165.024555,0.0245553203 C165.924555,-0.0754446797 166.824555,0.12455532 167.624555,0.72455532 C168.224555,1.52455532 168.424555,2.42455532 168.324555,3.32455532 L168.324555,4.62455532 L165.224555,5.12455532 L165.224555,2.52455532 L165.224555,2.52455532 Z" id="Path"></path>
            </g>
            <g id="Group" transform="translate(184.500000, 175.189286)">
                <path d="M0,13.9107143 L7.5,0.0107142857 L10.5,0.0107142857 L18.1,13.9107143 L14.6,13.9107143 L13,10.8107143 L4.6,10.8107143 L3.1,13.9107143 L0,13.9107143 Z M5.9,8.31071429 L11.7,8.31071429 L8.8,2.61071429 L5.9,8.31071429 Z" id="Shape"></path>
                <path d="M22.2,13.9107143 L22.2,0.0107142857 L24.3,0.0107142857 L33.6,8.21071429 L35.1,9.71071429 C35,8.41071429 35,7.61071429 35,7.31071429 L35,0.0107142857 L37.8,0.0107142857 L37.8,13.9107143 L35.7,13.9107143 L26,5.31071429 C25.6,4.91071429 25.2,4.61071429 24.9,4.21071429 C25,5.11071429 25,5.81071429 25,6.41071429 L25,13.9107143 L22.2,13.9107143 L22.2,13.9107143 Z" id="Path"></path>
                <path d="M44.5,13.9107143 L44.5,0.0107142857 L53,0.0107142857 C55,-0.0892857143 57,0.510714286 58.6,1.81071429 C60,3.11071429 60.7,5.01071429 60.5,6.91071429 C60.5,8.21071429 60.2,9.51071429 59.6,10.7107143 C59,11.8107143 58,12.7107143 56.9,13.3107143 C55.4,13.8107143 53.8,14.1107143 52.1,14.0107143 L44.5,13.9107143 L44.5,13.9107143 Z M47.5,11.3107143 L51.5,11.3107143 C53,11.4107143 54.5,11.1107143 55.9,10.4107143 C57,9.51071429 57.5,8.21071429 57.4,6.91071429 C57.4,4.01071429 56,2.61071429 53,2.61071429 L47.5,2.61071429 L47.5,11.3107143 L47.5,11.3107143 Z" id="Shape"></path>
            </g>
            <g id="Group" transform="translate(258.500000, 175.175445)">
                <polygon id="Path" points="0 13.9245553 0 0.0245553203 3.1 0.0245553203 3.1 5.42455532 12.7 5.42455532 12.7 0.0245553203 15.8 0.0245553203 15.8 13.9245553 12.7 13.9245553 12.7 7.92455532 3.1 7.92455532 3.1 13.9245553"></polygon>
                <polygon id="Path" points="22.5 13.9245553 22.5 0.0245553203 25.6 0.0245553203 25.6 13.9245553"></polygon>
                <path d="M44.7,2.52455532 L35.1,2.52455532 L35.1,11.3245553 L44.7,11.3245553 L44.7,8.22455532 L39.7,8.22455532 L39.7,5.82455532 L47.7,5.82455532 L47.7,10.6245553 C47.8,11.5245553 47.6,12.5245553 47,13.2245553 C46.2,13.7245553 45.3,14.0245553 44.4,13.9245553 L35.3,13.9245553 C34.4,14.0245553 33.5,13.8245553 32.7,13.2245553 C32.1,12.4245553 31.9,11.5245553 32,10.6245553 L32,3.32455532 C31.9,2.42455532 32.1,1.42455532 32.7,0.72455532 C33.5,0.22455532 34.4,-0.0754446797 35.3,0.0245553203 L44.4,0.0245553203 C45.3,-0.0754446797 46.2,0.12455532 46.9,0.72455532 C47.5,1.42455532 47.7,2.32455532 47.6,3.22455532 L47.6,3.52455532 L44.6,4.12455532 L44.6,2.52455532 L44.7,2.52455532 L44.7,2.52455532 Z" id="Path"></path>
                <polygon id="Path" points="54.1 13.9245553 54.1 0.0245553203 57.2 0.0245553203 57.2 5.42455532 66.8 5.42455532 66.8 0.0245553203 69.9 0.0245553203 69.9 13.9245553 66.8 13.9245553 66.8 7.92455532 57.2 7.92455532 57.2 13.9245553"></polygon>
            </g>
            <g id="Group" transform="translate(341.900000, 175.175445)">
                <polygon id="Path" points="7.6 13.9245553 0 0.0245553203 3.5 0.0245553203 8.9 10.0245553 14 0.0245553203 17.1 0.0245553203 9.8 13.9245553"></polygon>
                <path d="M18,13.9245553 L25.5,0.0245553203 L28.5,0.0245553203 L36.1,13.9245553 L32.6,13.9245553 L31,10.8245553 L22.6,10.8245553 L21.1,13.9245553 L18,13.9245553 Z M23.9,8.32455532 L29.7,8.32455532 L26.8,2.62455532 L23.9,8.32455532 L23.9,8.32455532 Z" id="Shape"></path>
                <path d="M51.3,2.52455532 L43,2.52455532 L43,11.3245553 L51.3,11.3245553 L51.3,8.32455532 L54.4,9.02455532 L54.4,10.6245553 C54.5,11.5245553 54.3,12.5245553 53.7,13.2245553 C52.9,13.7245553 52,14.0245553 51.1,13.9245553 L43.2,13.9245553 C42.3,14.0245553 41.4,13.8245553 40.6,13.2245553 C40,12.4245553 39.8,11.5245553 39.9,10.6245553 L39.9,3.32455532 C39.8,2.42455532 40,1.42455532 40.6,0.72455532 C41.4,0.22455532 42.3,-0.0754446797 43.2,0.0245553203 L51.1,0.0245553203 C52,-0.0754446797 52.9,0.12455532 53.7,0.72455532 C54.3,1.52455532 54.5,2.42455532 54.4,3.32455532 L54.4,4.62455532 L51.3,5.12455532 L51.3,2.52455532 L51.3,2.52455532 Z" id="Path"></path>
                <path d="M63.8,0.0245553203 L63.8,11.3245553 L72.6,11.3245553 L72.6,0.0245553203 L75.6,0.0245553203 L75.6,10.6245553 C75.7,11.5245553 75.5,12.5245553 74.9,13.2245553 C74.1,13.7245553 73.2,14.0245553 72.3,13.9245553 L64,13.9245553 C63.1,14.0245553 62.2,13.8245553 61.4,13.2245553 C60.8,12.4245553 60.6,11.5245553 60.7,10.6245553 L60.7,0.0245553203 L63.8,0.0245553203 Z" id="Path"></path>
                <path d="M85.4,0.0245553203 L85.4,11.3245553 L94.2,11.3245553 L94.2,0.0245553203 L97.3,0.0245553203 L97.3,10.6245553 C97.4,11.5245553 97.2,12.5245553 96.6,13.2245553 C95.8,13.7245553 94.9,14.0245553 94,13.9245553 L85.7,13.9245553 C84.8,14.0245553 83.9,13.8245553 83.1,13.2245553 C82.6,12.4245553 82.3,11.5245553 82.4,10.6245553 L82.4,0.0245553203 L85.4,0.0245553203 Z" id="Path"></path>
                <path d="M104,13.9245553 L104,0.0245553203 L106.5,0.0245553203 L112.7,8.42455532 L118.8,0.0245553203 L121.3,0.0245553203 L121.3,13.9245553 L118.4,13.9245553 L118.4,5.32455532 C118.4,5.02455532 118.4,4.52455532 118.5,3.82455532 C118.3,4.32455532 118,4.82455532 117.7,5.22455532 L112.7,12.1245553 L112.1,12.1245553 L107.1,5.12455532 C106.8,4.72455532 106.5,4.22455532 106.3,3.72455532 C106.3,4.32455532 106.4,4.82455532 106.4,5.22455532 L106.4,13.8245553 L104,13.8245553 L104,13.9245553 L104,13.9245553 Z" id="Path"></path>
            </g>
            <g id="Group" transform="translate(476.500000, 175.175000)">
                <polygon id="Path" points="9.2 2.525 9.2 13.925 6.1 13.925 6.1 2.525 1.13686838e-13 2.525 1.13686838e-13 0.025 15.2 0.025 15.2 2.525 9.2 2.525"></polygon>
                <polygon id="Path" points="19.1 13.925 19.1 0.025 32.5 0.025 32.5 2.425 22.1 2.425 22.1 5.525 28.2 5.525 28.2 7.925 22.1 7.925 22.1 11.325 32.7 11.325 32.7 13.925"></polygon>
                <path d="M49.4,2.525 L41.1,2.525 L41.1,11.325 L49.4,11.325 L49.4,8.325 L52.5,9.025 L52.5,10.625 C52.6,11.525 52.4,12.525 51.8,13.225 C51,13.725 50.1,14.025 49.2,13.925 L41.3,13.925 C40.4,14.025 39.5,13.825 38.7,13.225 C38.2,12.425 37.9,11.525 38,10.625 L38,3.325 C37.9,2.425 38.1,1.425 38.7,0.725 C39.5,0.225 40.4,-0.075 41.3,0.025 L49.2,0.025 C50.1,-0.075 51,0.125 51.8,0.725 C52.3,1.525 52.6,2.425 52.5,3.325 L52.5,4.625 L49.4,5.125 L49.4,2.525 L49.4,2.525 Z" id="Path"></path>
                <polygon id="Path" points="58.8 13.925 58.8 0.025 61.9 0.025 61.9 5.425 71.5 5.425 71.5 0.025 74.6 0.025 74.6 13.925 71.5 13.925 71.5 7.925 61.9 7.925 61.9 13.925"></polygon>
                <path d="M81.3,13.925 L81.3,0.025 L83.4,0.025 L92.7,8.225 L94.2,9.725 C94.1,8.425 94.1,7.625 94.1,7.325 L94.1,0.025 L96.9,0.025 L96.9,13.925 L94.8,13.925 L85.1,5.325 C84.7,4.925 84.3,4.625 84,4.225 C84.1,5.125 84.1,5.825 84.1,6.425 L84.1,13.925 L81.3,13.925 L81.3,13.925 Z" id="Path"></path>
                <path d="M103.3,3.325 C103.2,2.425 103.4,1.425 104,0.725 C104.8,0.225 105.7,-0.075 106.6,0.025 L116.3,0.025 C117.2,-0.075 118.1,0.125 118.9,0.725 C119.5,1.525 119.7,2.425 119.6,3.325 L119.6,10.625 C119.7,11.525 119.5,12.525 118.9,13.225 C118.1,13.725 117.2,14.025 116.3,13.925 L106.6,13.925 C105.7,14.025 104.8,13.825 104,13.225 C103.4,12.425 103.2,11.525 103.3,10.625 L103.3,3.325 L103.3,3.325 Z M106.4,11.325 L116.5,11.325 L116.5,2.525 L106.4,2.525 L106.4,11.325 Z" id="Shape"></path>
                <polygon id="Path" points="126 13.925 126 0.025 129.1 0.025 129.1 11.325 139 11.325 139 13.925"></polygon>
                <path d="M143.2,3.325 C143.1,2.425 143.3,1.425 143.9,0.725 C144.7,0.225 145.6,-0.075 146.5,0.025 L156.2,0.025 C157.1,-0.075 158,0.125 158.8,0.725 C159.4,1.525 159.6,2.425 159.5,3.325 L159.5,10.625 C159.6,11.525 159.4,12.525 158.8,13.225 C158,13.725 157.1,14.025 156.2,13.925 L146.5,13.925 C145.6,14.025 144.7,13.825 143.9,13.225 C143.3,12.425 143.1,11.525 143.2,10.625 L143.2,3.325 L143.2,3.325 Z M146.3,11.325 L156.4,11.325 L156.4,2.525 L146.3,2.525 L146.3,11.325 Z" id="Shape"></path>
                <path d="M178.3,2.525 L168.7,2.525 L168.7,11.325 L178.3,11.325 L178.3,8.225 L173.3,8.225 L173.3,5.825 L181.3,5.825 L181.3,10.625 C181.4,11.525 181.2,12.525 180.6,13.225 C179.8,13.725 178.9,14.025 178,13.925 L168.9,13.925 C168,14.025 167.1,13.825 166.3,13.225 C165.7,12.425 165.5,11.525 165.6,10.625 L165.6,3.325 C165.5,2.425 165.7,1.425 166.3,0.725 C167.1,0.225 168,-0.075 168.9,0.025 L178,0.025 C178.9,-0.075 179.8,0.125 180.6,0.725 C181.2,1.425 181.4,2.325 181.3,3.225 L181.3,3.525 L178.3,4.125 L178.3,2.525 L178.3,2.525 L178.3,2.525 Z" id="Path"></path>
                <polygon id="Path" points="187.8 13.925 187.8 0.025 190.9 0.025 190.9 13.925"></polygon>
                <polygon id="Path" points="197.6 13.925 197.6 0.025 211.1 0.025 211.1 2.425 200.7 2.425 200.7 5.525 206.8 5.525 206.8 7.925 200.7 7.925 200.7 11.325 211.3 11.325 211.3 13.925"></polygon>
                <path d="M228.4,2.425 L219.7,2.425 L219.7,5.425 L227.9,5.425 C228.8,5.325 229.7,5.525 230.5,6.125 C231.1,6.925 231.3,7.825 231.2,8.725 L231.2,10.625 C231.3,11.525 231.1,12.525 230.5,13.225 C229.7,13.725 228.8,14.025 227.9,13.925 L219.7,13.925 C218.8,14.025 217.9,13.825 217.1,13.225 C216.5,12.425 216.3,11.525 216.4,10.625 L216.4,10.325 L219.1,9.725 L219.1,11.325 L228.4,11.325 L228.4,8.125 L220.2,8.125 C218.8,8.525 217.3,7.725 216.9,6.225 C216.8,5.725 216.8,5.225 216.9,4.825 L216.9,3.325 C216.8,2.425 217,1.425 217.6,0.725 C218.4,0.225 219.3,-0.075 220.2,0.025 L227.7,0.025 C228.6,-0.075 229.5,0.125 230.2,0.625 C230.8,1.325 231,2.125 230.9,3.025 L230.9,3.325 L228.2,4.025 L228.4,2.425 L228.4,2.425 Z" id="Path"></path>
            </g>
            <rect id="Rectangle" transform="translate(138.473566, 33.341529) rotate(-58.650000) translate(-138.473566, -33.341529) " x="137.373566" y="20.3415292" width="2.2" height="26"></rect>
            <rect id="Rectangle" transform="translate(132.020299, 44.868138) rotate(-59.150000) translate(-132.020299, -44.868138) " x="130.920299" y="30.468138" width="2.2" height="28.8"></rect>
            <rect id="Rectangle" transform="translate(134.404812, 38.852625) rotate(-60.130000) translate(-134.404812, -38.852625) " x="133.304812" y="27.7526253" width="2.2" height="22.2"></rect>
            <rect id="Rectangle" x="97.2" y="127.2" width="2.2" height="19.2"></rect>
            <polygon id="Path" points="248.7 37.8 248.7 42.5 383.5 42.5 383.5 37.9"></polygon>
            <path d="M705.9,108.2 L702.3,108.2 L702.3,148.400186 L705.9,148.400186 C705.9,148.5 705.9,108.2 705.9,108.2 Z M679.3,148.5 L682.8,148.5 L682.8,111.8 L695.5,111.8 L695.5,108.5 L666.2,108.5 L666.2,111.8 L679.1,111.8 L679.3,148.5 L679.3,148.5 Z M630.5,148.5 L634.1,148.5 L634.1,113.9 L634.2,113.9 L655.8,148.5 L660.3,148.5 L660.3,108.4 L656.7,108.4 L656.7,143.6 L656.6,143.6 L634.5,108.4 L630.4,108.4 L630.4,148.5 L630.5,148.5 L630.5,148.5 Z M592.6,148.5 L596.8,137.7 L616.7,137.7 L621,148.5 L624.9,148.5 L608.9,108.4 L604.7,108.4 L588.8,148.5 L592.6,148.5 L592.6,148.5 Z M598,134.3 L606.8,111.7 L615.5,134.3 L598,134.3 Z M582.5,108.2 L578.9,108.2 L578.9,148.4 L582.5,148.4 L582.5,108.2 L582.5,108.2 Z M548.2,148.5 L548.2,131 L554.6,131 C562.3,131.2 571,129.2 571,119.7 C571,110.2 562.3,108.2 554.6,108.4 L544.6,108.4 L544.6,148.5 L548.2,148.5 Z M548.2,111.7 L557,111.7 C562.4,111.7 567.2,113.4 567.2,119.7 C567.2,126 562.4,127.7 557,127.7 L548.2,127.7 L548.2,111.7 L548.2,111.7 Z M495.7,148.5 L495.7,111.6 L495.8,111.6 L511.1,148.5 L514.7,148.5 L530,111.5 L530.1,111.5 L530.1,148.5 L533.7,148.5 L533.7,108.4 L528.2,108.4 L512.8,143.3 L497.8,108.4 L492,108.4 L492,148.5 L495.7,148.5 Z M480.8,108.2 L477.2,108.2 L477.2,148.4 L480.8,148.4 L480.8,108.2 Z" id="Shape"></path>
            <path d="M706.7,149.2 L701.6,149.2 L701.6,107.5 L706.7,107.5 L706.7,149.2 Z M703.1,147.7 L705.2,147.7 L705.2,109 L703.1,109 L703.1,147.7 Z M683.6,149.2 L678.6,149.2 L678.5,112.5 L665.6,112.5 L665.6,107.7 L696.4,107.7 L696.4,112.5 L683.7,112.5 L683.6,149.2 L683.6,149.2 Z M680,147.7 L682.1,147.7 L682.1,111 L694.8,111 L694.8,109.2 L667,109.2 L667,111 L680,111 L680,147.7 L680,147.7 L680,147.7 Z M661.2,149.2 L655.5,149.2 L634.9,116.3 L634.9,149.2 L629.8,149.2 L629.8,107.6 L635.1,107.6 L656.1,141.2 L656.1,107.6 L661.2,107.6 L661.2,149.2 L661.2,149.2 L661.2,149.2 Z M656.3,147.7 L659.7,147.7 L659.7,109.1 L657.6,109.1 L657.6,144.3 L656.3,144.3 L634.2,109.1 L631.3,109.1 L631.3,147.7 L633.4,147.7 L633.4,113.1 L634.7,113.1 L634.9,113.5 L656.3,147.7 L656.3,147.7 L656.3,147.7 Z M626.1,149.2 L620.6,149.2 L616.3,138.4 L597.4,138.4 L593.2,149.2 L587.9,149.2 L604.4,107.6 L609.6,107.6 L609.8,108.1 L626.1,149.2 L626.1,149.2 L626.1,149.2 Z M621.6,147.7 L623.9,147.7 L608.5,109.1 L605.3,109.1 L590,147.7 L592.1,147.7 L596.3,136.9 L617.2,136.9 L621.6,147.7 L621.6,147.7 Z M583.3,149.2 L578.2,149.2 L578.2,107.5 L583.3,107.5 L583.3,149.2 Z M579.7,147.7 L581.8,147.7 L581.8,109 L579.7,109 L579.7,147.7 Z M549,149.2 L543.9,149.2 L543.9,107.6 L554.7,107.6 C561.2,107.5 565.9,108.8 568.7,111.6 C572.8,116.2 572.8,123.2 568.7,127.8 C565.9,130.6 561.1,131.9 554.6,131.8 L549,131.8 L549,149.2 L549,149.2 Z M545.4,147.7 L547.5,147.7 L547.5,130.3 L554.7,130.3 C560.8,130.4 565.2,129.2 567.7,126.7 C571.2,122.7 571.2,116.7 567.7,112.7 C565.2,110.2 560.8,109 554.7,109.1 L545.4,109.1 L545.4,147.7 L545.4,147.7 Z M534.5,149.2 L529.4,149.2 L529.4,115 L515.2,149.3 L510.6,149.3 L496.4,115.2 L496.4,149.3 L491.3,149.3 L491.3,107.7 L498.3,107.7 L512.9,141.5 L527.8,107.7 L534.5,107.7 L534.5,149.2 L534.5,149.2 L534.5,149.2 Z M530.9,147.7 L533,147.7 L533,109.1 L528.7,109.1 L512.8,145.1 L497.3,109.1 L492.8,109.1 L492.8,147.7 L494.9,147.7 L494.9,110.8 L496.3,110.8 L511.6,147.7 L514.2,147.7 L529.5,110.7 L530.9,110.7 L530.9,147.7 L530.9,147.7 Z M481.6,149.2 L476.5,149.2 L476.5,107.5 L481.6,107.5 L481.6,149.2 Z M478,147.7 L480.1,147.7 L480.1,109 L478,109 L478,147.7 L478,147.7 Z M616.6,135.1 L596.9,135.1 L606.8,109.7 L616.6,135.1 L616.6,135.1 Z M599.1,133.6 L614.4,133.6 L606.8,113.8 L599.1,133.6 L599.1,133.6 Z M557,128.5 L547.5,128.5 L547.5,111 L557,111 C566,111 567.9,115.8 567.9,119.7 C567.9,123.6 566,128.5 557,128.5 Z M549,127 L557,127 C563.3,127 566.4,124.6 566.4,119.8 C566.4,115 563.3,112.6 557,112.6 L549,112.6 L549,127 Z" id="Shape"></path>
            <path d="M274.5,112.1 L274.5,110.7 L258.8,110.7 C258.8,111.2 258.9,111.7 258.9,112.2 C258.9,113.3 258.8,114.3 258.6,115.4 L274.4,115.4 C274.4,114.2 274.5,113.2 274.5,112.1 L274.5,112.1 L274.5,112.1 Z" id="Path"></path>
            <path d="M274,117.5 L257.9,117.5 C255.7,123.8 250,128.2 243.4,128.6 L243.4,144 C258.6,143.6 271.4,132.5 274,117.5 Z" id="Path"></path>
            <path d="M258.4,108.4 L274.2,108.4 C272.4,92.7 259.4,80.7 243.6,80.2 L243.6,95.6 C250.8,96.2 256.8,101.4 258.4,108.4 Z" id="Path"></path>
            <path d="M210.6,110 C210.6,110.7 210.5,111.4 210.5,112.1 C210.5,113.2 210.6,114.3 210.7,115.3 L226,115.3 C225.8,114.3 225.7,113.2 225.7,112.1 C225.7,111.4 225.8,110.7 225.8,109.9 C225.8,110 210.6,110 210.6,110 L210.6,110 Z" id="Path"></path>
            <path d="M210.9,107.7 L226.3,107.7 C228.2,100.8 234.3,95.9 241.4,95.5 L241.4,80.2 C225.9,80.7 213,92.4 210.9,107.7 Z" id="Path"></path>
            <path d="M241.1,144 L241.1,128.7 C234.5,128.3 228.7,123.9 226.6,117.6 L211,117.6 C213.6,132.3 226.1,143.3 241.1,144 Z" id="Path"></path>
            <path d="M388.2,110.7 L370.3,110.7 C370.3,111.1 370.4,111.5 370.4,111.9 C370.4,113.1 370.3,114.2 370,115.3 L388,115.3 C388.1,114.2 388.2,113.2 388.2,112.1 C388.2,111.6 388.2,111.1 388.2,110.7 L388.2,110.7 L388.2,110.7 Z" id="Path"></path>
            <path d="M368.2,110.7 L339.5,110.7 C339.5,111.1 339.4,111.5 339.4,111.9 C339.4,113.1 339.5,114.2 339.8,115.3 L367.8,115.3 C368.1,114.2 368.2,113 368.2,111.9 C368.3,111.5 368.3,111.1 368.2,110.7 L368.2,110.7 L368.2,110.7 Z" id="Path"></path>
            <path d="M355,95.3 C362.3,95.9 368.4,101.2 369.9,108.4 L388,108.4 C386.1,91.4 372.1,78.4 355,77.9 L355,95.3 L355,95.3 Z" id="Path"></path>
            <path d="M353.9,128.5 C347,128.4 340.8,124.1 338.5,117.5 L320.1,117.5 C323.6,145.1 353.6,146.3 353.9,146.3 L355,146.3 L355,145.2 C355.1,130.7 355.1,128.9 355,128.4 C354.7,128.5 354.3,128.5 353.9,128.5 L353.9,128.5 Z" id="Path"></path>
            <path d="M337.9,108.4 C339.4,101.2 345.5,95.8 352.8,95.3 L352.8,77.9 C335.8,78.5 321.9,91.5 320,108.4 L337.9,108.4 L337.9,108.4 Z" id="Path"></path>
            <path d="M337.5,111.9 C337.5,111.5 337.5,111.1 337.6,110.7 L319.9,110.7 L319.9,112.1 C319.9,113.2 319.9,114.3 320,115.3 L338,115.3 C337.7,114.2 337.5,113 337.5,111.9 L337.5,111.9 Z" id="Path"></path>
            <path d="M111.6,95.6 C113.9,96.9 133.4,106.8 138,109.1 L139.9,105.7 L117.5,94.7 C114.4,93.4 113.1,90.1 112.7,88.5 L107,87.5 C107.3,90.8 108.9,93.7 111.6,95.6 L111.6,95.6 Z" id="Path"></path>
            <polygon id="Path" points="107.6 34.1 116.3 19.7 92.6 6.5 83.8 21.1"></polygon>
            <path d="M67,24.1 C69.4,21.3 73,19.7 76.8,19.9 C78.4,19.9 80.1,20.1 81.6,20.4 L90.6,5.5 C82,2 73.9,1.7 66.5,4.6 C61.2,6.7 56.6,10.2 53.1,14.7 C53.1,14.8 67,24.1 67,24.1 Z" id="Path"></path>
            <path d="M181.6,110.7 L162.4,110.7 L162.4,114.9 L182,114.9 C181.7,113.5 181.6,112.1 181.6,110.7 Z" id="Path"></path>
            <path d="M189.3,60 C189.3,55.9 187.7,52 184.8,49 L173.9,60.7 L172.3,59.2 L183.2,47.4 C176.3,41.8 166.1,42.8 160.5,49.7 C154.9,56.6 155.9,66.7 162.8,72.4 C164.5,73.8 166.5,74.8 168.6,75.4 L168.6,78.3 L175.6,78.3 L175.6,75.8 C183.4,74.6 189.2,67.9 189.3,60 L189.3,60 L189.3,60 Z" id="Path"></path>
            <rect id="Rectangle" x="162.3" y="79.9" width="19.2" height="28.6"></rect>
            <path d="M195.8,127.5 C192.2,127.3 188.8,125.8 186.3,123.3 C184.7,121.6 183.4,119.5 182.7,117.2 L162.6,117.2 C162.7,117.8 162.7,118.3 162.8,118.9 L162.6,118.8 C161.9,120.9 159.4,123.9 155.2,125.6 C151.2,127.3 146.6,127.3 142.6,125.7 L131.9,141.4 C136.9,144.1 142.5,145.5 148.2,145.6 C160.8,145.6 169.9,138.4 172.3,136.3 C177.9,141.5 185.8,145.3 195.8,146.2 L195.8,127.5 L195.8,127.5 L195.8,127.5 Z" id="Path"></path>
            <path d="M140.4,124.7 C136.5,122.6 133.8,118.7 133.4,114.2 C133.2,112.6 133.2,111.1 133.3,109.5 L116,100.4 C115.7,101.7 114.2,106.1 114.8,114.7 C109,126.9 100.1,127 99.8,127 L31.8,127 L31.8,146.3 C32.6,146.4 33.4,146.4 34.2,146.4 L97.6,146.4 C110.8,146.4 120.8,137.5 123.2,135.1 C125.1,137.1 127.4,138.9 129.8,140.3 C129.9,140.3 140.4,124.7 140.4,124.7 L140.4,124.7 Z" id="Path"></path>
            <path d="M18.6,115.3 C18.6,113 19,110.7 19.8,108.6 L3.6,99.6 C1.3,104.5 0.1,109.9 0,115.3 C0,115.3 18.6,115.3 18.6,115.3 Z" id="Path"></path>
            <path d="M29.5,126.9 C25.1,126.5 22.1,124.9 20.3,122.2 C19.4,120.8 18.9,119.2 18.7,117.5 L0.1,117.5 C0.4,122.2 1.9,126.7 4.3,130.7 C9.5,139.1 18.9,144.7 29.5,146 C29.5,146.1 29.5,126.9 29.5,126.9 Z" id="Path"></path>
            <path d="M51.8,16.6 C45.6,26.4 8,91.8 4.6,97.6 L20.9,106.6 C27.1,95 61.7,33 65.7,26 L51.8,16.6 Z" id="Path"></path>
            <path d="M403.5,110.7 L403.5,112.2 C403.5,113.3 403.5,114.3 403.6,115.4 L423.1,115.4 C422.9,114.5 422.8,113.6 422.7,112.7 C422.7,112 422.7,111.4 422.8,110.8 C422.9,110.7 403.5,110.7 403.5,110.7 L403.5,110.7 Z" id="Path"></path>
            <path d="M437.7,77.9 C420.3,77.9 405.6,91.1 403.7,108.4 L423.2,108.4 C424.5,101.5 430.7,96.6 437.7,96.8 L438.8,96.8 L438.8,77.9 L437.7,77.9 Z" id="Path"></path>
            <path d="M423.8,117.5 L403.9,117.5 C406.6,134.1 420.9,146.3 437.7,146.3 L438.8,146.3 L438.8,127.4 L437.7,127.4 C430.1,127.5 425.7,122.3 423.8,117.5 L423.8,117.5 Z" id="Path"></path>
            <polygon id="Path" points="289.4 36 307.3 36 307.3 36 307.3 36 307.3 0 289 0 289 36"></polygon>
            <rect id="Rectangle" x="289.4" y="44.5" width="17.9" height="63.9"></rect>
            <rect id="Rectangle" x="289.4" y="110.7" width="17.9" height="4.6"></rect>
            <rect id="Rectangle" x="289.4" y="117.5" width="18.1" height="28.8"></rect>
            <path d="M211.9,127.6 L198,127.6 L198,146.3 C198.7,146.3 199.4,146.4 200.2,146.4 L200.2,146.3 L238.6,146.3 C227.1,144.9 217.1,137.9 211.9,127.6 L211.9,127.6 L211.9,127.6 Z" id="Path"></path>
        </g>
    </g>
</svg>