<?xml version="1.0" encoding="utf-8"?>
<!-- Generator: Adobe Illustrator 17.0.0, SVG Export Plug-In . SVG Version: 6.00 Build 0)  -->
<!DOCTYPE svg PUBLIC "-//W3C//DTD SVG 1.1//EN" "http://www.w3.org/Graphics/SVG/1.1/DTD/svg11.dtd">
<svg version="1.1" id="Livello_1" xmlns="http://www.w3.org/2000/svg" xmlns:xlink="http://www.w3.org/1999/xlink" x="0px" y="0px"
	 width="3370.39px" height="2383.94px" viewBox="0 0 3370.39 2383.94" enable-background="new 0 0 3370.39 2383.94"
	 xml:space="preserve">
<g>
	<g>
		<polygon fill="#F4F6F8" points="146.652,1160.854 1049.2,1039.894 1049.2,401.756 		"/>
		<polygon fill="#E3F1FC" points="1049.2,1041.169 1049.2,403.031 1463.551,714.019 		"/>
		<polygon fill="#CEE4F5" points="1297.096,845.443 1049.2,1041.169 1853.716,1371.517 		"/>
		<polygon fill="#A3CBED" points="1297.096,845.443 1853.716,391.532 1853.716,1371.517 		"/>
		<polygon fill="#86B4E2" points="1853.716,1371.517 2342.838,1013.126 1853.716,391.532 		"/>
		<polygon fill="#97B8E2" points="1853.716,391.532 2342.838,1013.126 2608.548,821.681 		"/>
		<polygon fill="#74A0D5" points="2608.548,1160.854 2608.548,821.681 2141.223,1160.854 		"/>
		<polygon fill="#638BC7" points="2608.548,821.681 3324.499,821.681 2608.548,1160.854 		"/>
	</g>
	<g>
		<g>
			<path fill="#154C9A" stroke="#154C9A" stroke-width="40" stroke-miterlimit="10" d="M808.603,1585.201v8.004H617.776v-301.193
				h8.004v293.189H808.603z"/>
			<path fill="#154C9A" stroke="#154C9A" stroke-width="40" stroke-miterlimit="10" d="M886.535,1444.083v149.122h-8.425v-149.122
				L766.9,1292.012h10.11l105.312,143.646l105.312-143.646h10.11L886.535,1444.083z"/>
			<path fill="#154C9A" stroke="#154C9A" stroke-width="40" stroke-miterlimit="10" d="M1253.021,1516.116
				c0,42.547-41.283,77.089-92.675,77.089h-27.803c-50.971,0-92.675-34.542-92.675-77.089c0-0.842,0-1.264,0-1.685h9.689
				c0,0.421,0,0.843,0,1.685c0,37.913,37.491,69.085,82.986,69.085h27.803c45.916,0,82.986-31.172,82.986-69.085
				c0-38.333-37.07-69.506-82.986-69.506c-46.338,1.264-64.03-9.268-64.03-9.268c-29.066-17.271-46.758-38.755-46.758-67.821
				c0-42.967,41.704-77.51,92.675-77.51h8.425c49.286,0,90.147,32.437,92.675,73.298h-10.11
				c-2.527-36.228-38.334-65.294-82.565-65.294h-8.425c-45.495,0-82.986,31.172-82.986,69.506c0,37.913,37.491,69.085,82.986,69.085
				c-3.792,0,0,0,0,0s24.011-0.421,36.227,1.264C1221.005,1446.189,1253.021,1478.204,1253.021,1516.116z"/>
		</g>
	</g>
	<g>
		<g>
			<path fill="#154C9A" stroke="#154C9A" stroke-width="6" stroke-miterlimit="10" d="M603.261,1726.059v92.396h88.464v5.336
				h-88.464v92.396h121.041v5.336H597.925v-200.799h126.377v5.336H603.261z"/>
			<path fill="#154C9A" stroke="#154C9A" stroke-width="6" stroke-miterlimit="10" d="M913.019,1720.723v200.799h-5.617
				l-149.687-191.251v191.251h-5.336v-200.799h5.336l149.687,191.531v-191.531H913.019z"/>
			<path fill="#154C9A" stroke="#154C9A" stroke-width="6" stroke-miterlimit="10" d="M946.435,1720.723l79.477,193.778
				l78.073-193.778h5.336l-80.881,200.799h-5.336l-82.005-200.799H946.435z"/>
			<path fill="#154C9A" stroke="#154C9A" stroke-width="6" stroke-miterlimit="10" d="M1180.086,1726.059v190.127h37.352v5.336
				h-80.039v-5.336h37.352v-190.127h-37.352v-5.336h80.039v5.336H1180.086z"/>
			<path fill="#154C9A" stroke="#154C9A" stroke-width="6" stroke-miterlimit="10" d="M1264.615,1823.79l109.808,97.731h-7.583
				l-109.808-97.731h-6.178v97.731h-5.336v-200.799h77.511c28.365,0,51.394,23.028,51.394,51.674
				c0,28.364-23.029,51.394-51.394,51.394H1264.615z M1250.854,1818.454h72.175c25.275,0,46.058-20.782,46.058-46.058
				c0-25.557-20.782-46.338-46.058-46.338h-72.175V1818.454z"/>
			<path fill="#154C9A" stroke="#154C9A" stroke-width="6" stroke-miterlimit="10" d="M1402.5,1821.263
				c0-55.606,44.934-100.54,100.259-100.54s100.259,44.934,100.259,100.54c0,55.325-44.934,100.259-100.259,100.259
				S1402.5,1876.588,1402.5,1821.263z M1407.836,1821.263c0,52.235,42.407,94.923,94.923,94.923
				c52.236,0,94.923-42.688,94.923-94.923c0-52.517-42.688-95.204-94.923-95.204
				C1450.243,1726.059,1407.836,1768.746,1407.836,1821.263z"/>
			<path fill="#154C9A" stroke="#154C9A" stroke-width="6" stroke-miterlimit="10" d="M1791.736,1720.723v200.799h-5.616
				l-149.687-191.251v191.251h-5.336v-200.799h5.336l149.687,191.531v-191.531H1791.736z"/>
			<path fill="#154C9A" stroke="#154C9A" stroke-width="6" stroke-miterlimit="10" d="M2012.19,1720.723v200.799h-5.336v-187.319
				l-88.183,187.319h-5.898l-87.621-187.319v187.319h-5.336v-200.799h5.336l90.711,194.059l90.991-194.059H2012.19z"/>
			<path fill="#154C9A" stroke="#154C9A" stroke-width="6" stroke-miterlimit="10" d="M2045.604,1726.059v92.396h88.464v5.336
				h-88.464v92.396h121.041v5.336h-126.377v-200.799h126.377v5.336H2045.604z"/>
			<path fill="#154C9A" stroke="#154C9A" stroke-width="6" stroke-miterlimit="10" d="M2355.362,1720.723v200.799h-5.617
				l-149.687-191.251v191.251h-5.336v-200.799h5.336l149.687,191.531v-191.531H2355.362z"/>
			<path fill="#154C9A" stroke="#154C9A" stroke-width="6" stroke-miterlimit="10" d="M2528.915,1726.059h-70.209v195.463h-5.336
				v-195.463h-69.929v-5.336h145.474V1726.059z"/>
		</g>
	</g>
</g>
</svg>
