<svg width="103" height="30" viewBox="0 0 103 30" fill="none" xmlns="http://www.w3.org/2000/svg">
  <path d="M27.5221 27.2166H21.0997V22.2679H25.0745C25.2432 22.2679 25.3806 22.129 25.3806 21.9583V20.1031C25.3806 19.9325 25.2432 19.7947 25.0745 19.7947H21.0997V14.846H27.2161C27.3848 14.846 27.5211 14.7071 27.5211 14.5375V12.6812C27.5211 12.5106 27.3837 12.3728 27.2161 12.3728H18.9592C18.7905 12.3728 18.6542 12.5117 18.6542 12.6812V19.7947H16.5126C16.3439 19.7947 16.2076 19.9336 16.2076 20.1031V21.9583C16.2076 22.129 16.3439 22.2679 16.5126 22.2679H18.6542V29.3813C18.6542 29.552 18.7905 29.6898 18.9592 29.6898H27.5221C27.6909 29.6898 27.8272 29.552 27.8272 29.3813V27.5261C27.8272 27.3555 27.6909 27.2177 27.5221 27.2177" fill="#00304E"/>
  <path d="M39.6013 27.2177H33.1789V12.6801C33.1789 12.5095 33.0415 12.3717 32.8739 12.3717H31.0395C30.8708 12.3717 30.7345 12.5095 30.7345 12.6801V21.0307V29.3813C30.7345 29.552 30.8718 29.6898 31.0395 29.6898H39.6024C39.7712 29.6898 39.9074 29.552 39.9074 29.3813V27.5261C39.9074 27.3555 39.7712 27.2177 39.6024 27.2177" fill="#00304E"/>
  <path d="M15.5955 12.3717H5.19812C5.02939 12.3717 4.89311 12.5106 4.89311 12.6801V14.5353C4.89311 14.706 5.02939 14.8449 5.19812 14.8449H9.17405V29.3802C9.17405 29.5509 9.31033 29.6898 9.47906 29.6898H11.3134C11.4822 29.6898 11.6195 29.5509 11.6195 29.3802V14.8449H15.5944C15.7631 14.8449 15.9005 14.706 15.9005 14.5353V12.6801C15.9005 12.5095 15.7631 12.3717 15.5944 12.3717" fill="#00304E"/>
  <path d="M63.3022 12.3717H61.4679C61.2991 12.3717 61.1628 12.5106 61.1628 12.6801V24.6843C61.1628 26.2004 59.9861 27.4824 58.487 27.525C56.9317 27.5677 55.6576 26.3054 55.6576 24.7422V12.6801C55.6576 12.5095 55.5202 12.3717 55.3515 12.3717H53.5171C53.3484 12.3717 53.2121 12.5106 53.2121 12.6801V24.6624C53.2121 27.548 55.478 29.9556 58.3302 29.9994C61.2331 30.0442 63.6094 27.6683 63.6094 24.7422V12.6801C63.6094 12.5095 63.4731 12.3717 63.3044 12.3717" fill="#00304E"/>
  <path d="M51.2739 12.3717H49.0945C48.9895 12.3717 48.8933 12.4253 48.837 12.5139L45.1056 18.3836L41.3741 12.5139C41.3178 12.4253 41.2205 12.3717 41.1156 12.3717H38.9373C38.695 12.3717 38.549 12.6419 38.6798 12.8486L43.8812 21.0318V29.3824C43.8812 29.5531 44.0175 29.692 44.1862 29.692H46.0206C46.1893 29.692 46.3256 29.5531 46.3256 29.3824V21.0318L51.527 12.8486C51.6578 12.6429 51.5118 12.3717 51.2695 12.3717" fill="#00304E"/>
  <path d="M77.9805 12.3717H75.4442C75.3144 12.3717 75.1997 12.4537 75.1554 12.5773L72.1702 21.0318L69.185 12.5773C69.1417 12.4537 69.026 12.3717 68.8962 12.3717H66.3599C66.1912 12.3717 66.0538 12.5106 66.0538 12.6801V29.3813C66.0538 29.552 66.1912 29.6909 66.3599 29.6909H68.1943C68.363 29.6909 68.4993 29.552 68.4993 29.3813V17.9384L70.8723 24.5388C70.9166 24.6613 71.0313 24.7422 71.16 24.7422H73.1782C73.3069 24.7422 73.4216 24.6613 73.4659 24.5388L75.8389 17.9384V29.3813C75.8389 29.552 75.9763 29.6909 76.144 29.6909H77.9783C78.1471 29.6909 78.2844 29.552 78.2844 29.3813V12.6801C78.2844 12.5095 78.1471 12.3717 77.9783 12.3717" fill="#00304E"/>
  <path d="M2.14047 12.3717H0.305008C0.13628 12.3717 0 12.5106 0 12.6801V29.3813C0 29.552 0.137362 29.6898 0.305008 29.6898H2.13939C2.30811 29.6898 2.44439 29.552 2.44439 29.3813V12.6801C2.44439 12.5095 2.30811 12.3717 2.13939 12.3717" fill="#00304E"/>
  <path d="M92.9649 18.7686V12.3717H99.2911L92.9649 18.7686ZM84.1932 9.89733L90.5194 3.50038V9.89733H84.1932ZM92.9649 2.47433H100.305V9.89733H92.9649V2.47433ZM90.4296 0.0907912L80.8229 9.80654C80.7656 9.86452 80.7331 9.94327 80.7331 10.0253V12.0621C80.7331 12.2327 80.8694 12.3717 81.0382 12.3717H90.5194V21.9594C90.5194 22.1301 90.6556 22.2679 90.8244 22.2679H92.8383C92.9194 22.2679 92.9962 22.2351 93.0535 22.1771L102.66 12.4614C102.718 12.4034 102.75 12.3257 102.75 12.2437V0.309565C102.75 0.138921 102.613 0 102.444 0H90.6438C90.5626 0 90.4848 0.0328161 90.4285 0.0907912" fill="#00B1AA"/>
</svg>
