<svg xmlns="http://www.w3.org/2000/svg" viewBox="14.48 13.61 118.07 135.98" role="img" aria-label="Logo ARIA Srl">
  <path fill="#FFFFFF" fill-rule="evenodd" d="M 35.870 110.040 C 33.830 110.040 31.460 111.930 28.740 115.690 C 25.570 120.040 23.990 124.850 23.990 130.140 C 23.990 134.780 25.180 138.400 27.550 141.010 C 29.480 143.030 31.680 144.050 34.170 144.050 C 34.850 144.050 35.420 143.980 35.870 143.830 L 35.870 110.040 Z M 122.920 110.040 C 120.880 110.040 118.510 111.930 115.790 115.690 C 112.620 120.040 111.040 124.850 111.040 130.140 C 111.040 134.780 112.230 138.400 114.600 141.010 C 116.530 143.030 118.730 144.050 121.220 144.050 C 121.900 144.050 122.470 143.980 122.920 143.830 L 122.920 110.040 Z M 14.480 95.600 L 14.480 127.980 C 14.480 127.980 14.560 128.020 14.610 127.970 C 15.630 116.460 22.710 107.260 35.870 100.370 L 35.870 97.110 C 35.760 95.660 35.300 94.760 34.510 94.400 C 33.720 94.030 32.310 93.850 30.270 93.850 L 22.120 93.850 L 22.120 88.310 L 34.680 88.310 C 37.620 88.310 40.200 88.780 42.400 89.730 C 44.610 90.670 45.710 92.040 45.710 93.850 L 45.710 149.480 L 53.960 149.590 L 53.960 88.860 L 64.140 88.860 L 64.140 91.140 C 65.720 89.620 68.100 88.860 71.270 88.860 C 73.980 88.860 76.190 89.620 77.890 91.140 L 72.630 98.740 C 70.250 96.570 68.210 95.480 66.520 95.480 C 64.930 95.480 64.140 96.570 64.140 98.740 L 64.140 149.590 L 83.560 149.590 L 83.560 88.860 L 93.740 88.860 L 93.740 149.590 L 120.880 149.480 C 114.430 149.480 109.510 147.600 106.120 143.830 C 103.060 140.500 101.530 136.190 101.530 130.900 C 101.530 118.010 108.660 107.830 122.920 100.370 L 122.920 97.110 C 122.810 95.660 122.350 94.760 121.560 94.400 C 120.770 94.030 119.350 93.850 117.320 93.850 L 109.170 93.850 L 109.170 88.310 L 121.730 88.310 C 124.670 88.310 127.250 88.780 129.450 89.730 C 131.100 90.430 132.130 91.370 132.550 92.560 L 132.550 46.610 C 115.210 46.610 49.170 39.280 14.480 88.270 L 14.480 95.600 Z M 88.990 70.600 C 92.720 70.600 94.590 72.740 94.590 77.010 C 94.590 81.210 92.720 83.320 88.990 83.320 C 85.030 83.320 83.050 81.210 83.050 77.010 C 83.050 75.490 83.590 74.040 84.660 72.670 C 85.740 71.290 87.180 70.600 88.990 70.600 Z"/>
  <path fill="#B5C4DB" fill-rule="evenodd" d="M 132.550 40.610 L 132.550 30.110 C 132.550 21.000 125.160 13.610 116.040 13.610 L 30.990 13.610 C 21.880 13.610 14.480 21.000 14.480 30.110 L 14.520 85.160 C 49.200 36.170 115.210 40.610 132.550 40.610 Z"/>
</svg>

